HIERARCHY
ROOT Hips
{
	OFFSET 0.000000 0.000000 0.000000 
	CHANNELS 6 Xposition Yposition Zposition Zrotation Yrotation Xrotation
	JOINT LeftUpLeg
	{
		OFFSET 1.363060 -1.794630 0.839290 
		CHANNELS 3 Zrotation Yrotation Xrotation
		JOINT LeftLeg
		{
			OFFSET 2.448110 -6.726130 0.000000 
			CHANNELS 3 Zrotation Yrotation Xrotation
			JOINT LeftFoot
			{
				OFFSET 2.562200 -7.039590 0.000000 
				CHANNELS 3 Zrotation Yrotation Xrotation
				JOINT LeftToeBase
				{
					OFFSET 0.157640 -0.433110 2.322550 
					CHANNELS 3 Zrotation Yrotation Xrotation
					End Site
					{
						OFFSET 0.000000 0.000000 0.000000 
					}
				}
			}
		}
	}
	JOINT RightUpLeg
	{
		OFFSET -1.305520 -1.794630 0.839290 
		CHANNELS 3 Zrotation Yrotation Xrotation
		JOINT RightLeg
		{
			OFFSET -2.542530 -6.985550 0.000000 
			CHANNELS 3 Zrotation Yrotation Xrotation
			JOINT RightFoot
			{
				OFFSET -2.568260 -7.056230 0.000000 
				CHANNELS 3 Zrotation Yrotation Xrotation
				JOINT RightToeBase
				{
					OFFSET -0.164730 -0.452590 2.363150 
					CHANNELS 3 Zrotation Yrotation Xrotation
					End Site
					{
						OFFSET 0.000000 0.000000 0.000000 
					}
				}
			}
		}
	}
	JOINT Spine
	{
		OFFSET 0.028270 2.035590 -0.193380 
		CHANNELS 3 Zrotation Yrotation Xrotation
		JOINT Spine1
		{
			OFFSET 0.056720 2.048850 -0.042750 
			CHANNELS 3 Zrotation Yrotation Xrotation
			JOINT Neck1
			{
				OFFSET -0.054170 1.746240 0.172020 
				CHANNELS 3 Zrotation Yrotation Xrotation
				JOINT Head
				{
					OFFSET 0.104070 1.761360 -0.123970 
					CHANNELS 3 Zrotation Yrotation Xrotation
					End Site
					{
						OFFSET 0.000000 0.000000 0.000000 
					}
				}
			}
			JOINT LeftArm
			{
				OFFSET 3.362410 1.200890 -0.311210 
				CHANNELS 3 Zrotation Yrotation Xrotation
				JOINT LeftForeArm
				{
					OFFSET 4.983000 -0.000000 -0.000000 
					CHANNELS 3 Zrotation Yrotation Xrotation
					JOINT LeftHand
					{
						OFFSET 3.483560 -0.000000 -0.000000 
						CHANNELS 3 Zrotation Yrotation Xrotation
						JOINT LeftHandIndex1
						{
							OFFSET 0.715260 -0.000000 -0.000000 
							CHANNELS 3 Zrotation Yrotation Xrotation
							End Site
							{
								OFFSET 0.000000 0.000000 0.000000 
							}
						}
					}
				}
			}
			JOINT RightArm
			{
				OFFSET -3.136600 1.374050 -0.404650 
				CHANNELS 3 Zrotation Yrotation Xrotation
				JOINT RightForeArm
				{
					OFFSET -5.241900 -0.000000 -0.000000 
					CHANNELS 3 Zrotation Yrotation Xrotation
					JOINT RightHand
					{
						OFFSET -3.444170 -0.000000 -0.000000 
						CHANNELS 3 Zrotation Yrotation Xrotation
						JOINT RightHandIndex1
						{
							OFFSET -0.622530 -0.000000 -0.000000 
							CHANNELS 3 Zrotation Yrotation Xrotation
							End Site
							{
								OFFSET 0.000000 0.000000 0.000000 
							}
						}
					}
				}
			}
		}
	}
}
MOTION
Frames: 9
Frame Time: 0.041667
14.289345 16.654026 -18.030236 6.537221 7.048960 13.478859 -40.504284 8.535027 7.780474 -2.120105 0.033251 1.298070 -1.469241 17.577144 -14.497310 0.510400 -4.579400 -12.712800 32.402214 12.793402 -34.085486 1.025285 -12.397420 26.090446 2.476924 -27.209136 -30.108750 -1.595000 -7.966000 22.611000 1.601297 -5.125045 -5.320983 0.061157 -2.525515 0.067689 7.034207 -8.664616 18.702493 -0.686800 -2.088800 17.783000 -77.091132 1.752388 4.021639 33.743938 -39.273118 -9.094544 0.500025 4.166562 8.344451 -7.125000 0.000000 0.000000 95.512714 -7.963087 -2.320044 -18.526083 27.336827 -3.204610 -1.673890 -2.834112 13.553333 7.125000 0.000000 0.000000 
14.309553 16.651541 -17.929735 6.601226 6.368204 13.378751 -40.539140 9.099585 8.089431 -2.113481 0.029276 1.330687 -1.473722 17.484259 -14.098540 0.619700 -5.038000 -14.016900 32.654416 12.259209 -33.921181 0.970299 -12.447410 26.372552 2.516802 -27.031680 -29.465565 -1.528400 -7.805700 22.125300 1.595498 -5.124752 -5.332470 -0.053973 -2.521282 0.050149 6.963717 -8.527871 18.739029 -0.713300 -2.054600 17.801200 -77.542508 1.778144 4.208117 34.485125 -39.937232 -9.465226 0.455270 4.150747 7.976230 -7.125000 0.000000 0.000000 95.657927 -8.133565 -2.356534 -18.483086 27.321340 -3.179579 -1.643126 -2.807073 13.782206 7.125000 0.000000 0.000000 
14.326952 16.652946 -17.827506 6.623639 5.720106 13.266961 -40.504272 9.646739 8.403640 -2.106225 0.023769 1.364880 -1.489965 17.432468 -13.610831 0.739700 -5.494200 -15.323600 32.893702 11.824921 -33.734222 0.932585 -12.476257 26.575378 2.547308 -26.726901 -28.593547 -1.433000 -7.568800 21.411800 1.593875 -5.133311 -5.344475 -0.169762 -2.523086 0.027303 6.888247 -8.383116 18.770709 -0.747300 -2.016200 17.816200 -78.034951 1.833900 4.418135 35.242465 -40.606581 -9.853479 0.408597 4.137842 7.654071 -7.125000 0.000000 0.000000 95.788393 -8.304458 -2.340351 -18.464353 27.329563 -3.160463 -1.606137 -2.789078 13.935018 7.125000 0.000000 0.000000 
14.341648 16.657484 -17.724195 6.574618 5.112353 13.167352 -40.487954 9.270392 6.438170 -1.952673 1.717329 5.689905 -1.262115 16.531961 -15.128124 0.869900 -5.946800 -16.630200 33.134061 11.513680 -33.505126 0.916455 -12.483443 26.685683 2.558490 -26.290300 -27.544222 -1.330900 -7.305500 20.623600 1.596952 -5.151952 -5.355513 -0.286075 -2.534397 0.004950 6.805779 -8.233095 18.798318 -0.793600 -1.972900 17.834000 -78.567357 1.891877 4.631038 35.982444 -41.254571 -10.242879 0.367769 4.126268 7.399266 -7.125000 0.000000 0.000000 95.904470 -8.454198 -2.297268 -18.453977 27.347392 -3.145386 -1.567473 -2.782051 14.043651 7.125000 0.000000 0.000000 
14.353536 16.663320 -17.619912 6.471474 4.516077 13.036306 -40.312535 9.031840 4.805231 -1.725779 3.154030 9.417685 -1.072481 15.740925 -16.185940 1.004800 -6.378600 -17.887000 33.400572 11.332403 -33.165690 0.915507 -12.462299 26.716265 2.540905 -25.759775 -26.480626 -1.247600 -7.081900 19.958400 1.604198 -5.171890 -5.364784 -0.399221 -2.547674 -0.022020 6.717492 -8.078602 18.821916 -0.851100 -1.925300 17.850900 -79.138153 1.953048 4.851476 36.693121 -41.869640 -10.622274 0.338583 4.107707 7.208466 -7.125000 0.000000 0.000000 96.005263 -8.585030 -2.222914 -18.450659 27.370923 -3.132613 -1.527530 -2.779946 14.119705 7.125000 0.000000 0.000000 
14.362397 16.669371 -17.515089 6.322383 3.910745 12.870132 -40.005205 8.929951 3.441531 -1.456146 4.379371 12.663288 -0.927373 15.047148 -16.801265 1.149600 -6.808000 -19.147700 33.720984 11.241187 -32.702891 0.923703 -12.416703 26.690645 2.499553 -25.191507 -25.507505 -1.192300 -6.928800 19.504600 1.615261 -5.188840 -5.371121 -0.503181 -2.560296 -0.051394 6.624547 -7.916899 18.841393 -0.918800 -1.872300 17.866100 -79.748849 2.018389 5.072134 37.367006 -42.448698 -10.987404 0.320823 4.083437 7.074941 -7.125000 0.000000 0.000000 96.086334 -8.684107 -2.131569 -18.442055 27.385570 -3.118717 -1.488665 -2.778334 14.204676 7.125000 0.000000 0.000000 
14.368449 16.675423 -17.410590 6.134381 3.288390 12.670164 -39.569679 9.142892 2.047334 -1.126072 5.550425 15.826424 -0.783081 14.134586 -16.979365 1.304400 -7.235100 -20.413700 34.108949 11.193117 -32.128969 0.935604 -12.352647 26.632243 2.447602 -24.657942 -24.697305 -1.167000 -6.857500 19.293900 1.628849 -5.200157 -5.374897 -0.595908 -2.570630 -0.089123 6.531781 -7.749546 18.855152 -0.992500 -1.814900 17.875100 -80.390654 2.086268 5.297984 38.001283 -42.988453 -11.332587 0.313693 4.049353 6.994524 -7.125000 0.000000 0.000000 96.150638 -8.754538 -2.012119 -18.432574 27.395518 -3.104172 -1.451137 -2.774313 14.296180 7.125000 0.000000 0.000000 
14.372015 16.681691 -17.306523 5.920192 2.629759 12.444801 -39.053876 9.358749 0.678559 -0.740625 6.684887 18.962806 -0.676399 13.279579 -16.860209 1.469100 -7.659600 -21.684800 34.551305 11.172793 -31.461839 0.948067 -12.274680 26.553969 2.391574 -24.190542 -24.082136 -1.166900 -6.857300 19.293400 1.643507 -5.201454 -5.376533 -0.676927 -2.575617 -0.141595 6.445682 -7.573018 18.862180 -1.063300 -1.753500 17.869500 -81.064415 2.172318 5.524647 38.602923 -43.496640 -11.661618 0.307419 4.011511 6.970994 -7.125000 0.000000 0.000000 96.199987 -8.791555 -1.888985 -18.408526 27.386179 -3.085440 -1.416850 -2.764121 14.434426 7.125000 0.000000 0.000000 
14.373420 16.688283 -17.203429 5.696250 1.930349 12.204395 -38.477394 9.551485 -0.675657 -0.302768 7.783575 22.078304 -0.610025 12.492579 -16.422151 1.633800 -8.057500 -22.888900 35.017843 11.178792 -30.727591 0.962066 -12.183656 26.453062 2.331659 -23.771831 -23.632446 -1.181500 -6.898400 19.414700 1.657264 -5.190153 -5.376120 -0.748861 -2.573795 -0.206517 6.368014 -7.389318 18.862355 -1.128700 -1.689300 17.847000 -81.758764 2.279549 5.769661 39.190378 -43.989321 -11.986200 0.293760 3.977279 6.967736 -7.125000 0.000000 0.000000 96.235662 -8.804615 -1.732917 -18.388242 27.378507 -3.067204 -1.383661 -2.751632 14.582464 7.125000 0.000000 0.000000 
